<?xml version="1.0" encoding="utf-8"?>
<!-- Generator: Adobe Illustrator 23.1.0, SVG Export Plug-In . SVG Version: 6.00 Build 0)  -->
<svg version="1.1" xmlns="http://www.w3.org/2000/svg" xmlns:xlink="http://www.w3.org/1999/xlink" x="0px" y="0px"
	 viewBox="0 0 400 270" style="enable-background:new 0 0 400 270;" xml:space="preserve">
<style type="text/css">
	.st0{fill:#59546C;}
	.st1{fill:#8B939C;}
	.st2{fill:#B5BFCC;}
</style>
<g id="Слой_2">
	<path class="st0" d="M387.35,270H12.65C5.66,270,0,264.34,0,257.35V12.65C0,5.66,5.66,0,12.65,0h374.7C394.34,0,400,5.66,400,12.65
		v244.7C400,264.34,394.34,270,387.35,270z"/>
</g>
<g id="Слой_2__x28_копия_x29_">
	<path class="st1" d="M377.29,260.13H22.71c-6.99,0-12.65-5.66-12.65-12.65V22.52c0-6.99,5.66-12.65,12.65-12.65h354.58
		c6.99,0,12.65,5.66,12.65,12.65v224.95C389.94,254.46,384.28,260.13,377.29,260.13z"/>
</g>
<g id="Слой_4">
	<g>
		<path class="st2" d="M47.59,73.95C32.9,73.95,20.96,62,20.96,47.32c0-14.69,11.95-26.63,26.63-26.63h304.1
			c14.69,0,26.63,11.95,26.63,26.63c0,14.69-11.95,26.63-26.63,26.63H47.59z"/>
		<path class="st0" d="M351.69,22.68c13.58,0,24.63,11.05,24.63,24.63s-11.05,24.63-24.63,24.63H47.59
			c-13.58,0-24.63-11.05-24.63-24.63s11.05-24.63,24.63-24.63H351.69 M351.69,18.68H47.59c-15.81,0-28.63,12.82-28.63,28.63v0
			c0,15.81,12.82,28.63,28.63,28.63h304.1c15.81,0,28.63-12.82,28.63-28.63v0C380.33,31.5,367.51,18.68,351.69,18.68L351.69,18.68z"
			/>
	</g>
</g>
<g id="Слой_1">
	<circle class="st0" cx="351.69" cy="47.32" r="28.63"/>
</g>
</svg>
